<svg xmlns="http://www.w3.org/2000/svg" width="122.663" height="41.003" viewBox="0 0 122.663 41.003"><defs><style>.a{fill:#a6a6a6;}.b{fill:#fff;}</style></defs><path class="a" d="M112.895,0H9.774C9.4,0,9.026,0,8.651,0c-.314,0-.625.008-.942.013A13.546,13.546,0,0,0,5.655.2,6.832,6.832,0,0,0,3.707.839,6.6,6.6,0,0,0,2.048,2.047,6.415,6.415,0,0,0,.84,3.709,6.767,6.767,0,0,0,.2,5.66,13.318,13.318,0,0,0,.016,7.712c-.01.314-.011.63-.016.944V32.35c.005.318.006.627.016.945A13.318,13.318,0,0,0,.2,35.347,6.753,6.753,0,0,0,.84,37.3a6.363,6.363,0,0,0,1.208,1.655,6.432,6.432,0,0,0,1.659,1.208,6.869,6.869,0,0,0,1.949.647,13.792,13.792,0,0,0,2.054.181c.317.007.628.011.942.011.375,0,.746,0,1.122,0H112.895c.368,0,.743,0,1.111,0,.312,0,.633,0,.945-.011a13.611,13.611,0,0,0,2.05-.181,6.975,6.975,0,0,0,1.956-.647,6.435,6.435,0,0,0,1.658-1.208,6.555,6.555,0,0,0,1.211-1.655,6.77,6.77,0,0,0,.635-1.952,13.843,13.843,0,0,0,.19-2.052c0-.318,0-.627,0-.945.008-.372.008-.743.008-1.121V9.775c0-.375,0-.748-.008-1.119,0-.314,0-.63,0-.944a13.846,13.846,0,0,0-.19-2.052,6.784,6.784,0,0,0-.635-1.951,6.628,6.628,0,0,0-2.869-2.87A6.937,6.937,0,0,0,117,.2a13.371,13.371,0,0,0-2.05-.181C114.639.01,114.318,0,114.006,0c-.368,0-.743,0-1.111,0Z" transform="translate(0 0)"/><path d="M8.635,40.084c-.312,0-.617,0-.927-.011a13.006,13.006,0,0,1-1.916-.167,6.031,6.031,0,0,1-1.7-.562A5.541,5.541,0,0,1,2.661,38.3,5.454,5.454,0,0,1,1.615,36.87a5.865,5.865,0,0,1-.557-1.7A12.725,12.725,0,0,1,.888,33.25c-.006-.216-.015-.936-.015-.936V8.634s.009-.709.015-.917A12.68,12.68,0,0,1,1.058,5.8a5.9,5.9,0,0,1,.557-1.7A5.508,5.508,0,0,1,2.655,2.661,5.7,5.7,0,0,1,4.093,1.613a5.969,5.969,0,0,1,1.695-.558A12.9,12.9,0,0,1,7.71.888L8.635.875H113.979l.936.013a12.7,12.7,0,0,1,1.9.167,6.087,6.087,0,0,1,1.713.562A5.734,5.734,0,0,1,121.008,4.1a5.907,5.907,0,0,1,.549,1.69,13.322,13.322,0,0,1,.178,1.935c0,.29,0,.6,0,.912.008.384.008.75.008,1.119V31.206c0,.372,0,.736-.008,1.1,0,.333,0,.639,0,.953a13.048,13.048,0,0,1-.175,1.9,5.883,5.883,0,0,1-.554,1.712,5.618,5.618,0,0,1-1.041,1.42,5.549,5.549,0,0,1-1.434,1.048,6.009,6.009,0,0,1-1.71.564,12.857,12.857,0,0,1-1.916.167c-.3.007-.615.011-.92.011l-1.111,0Z" transform="translate(0.022 0.022)"/><g transform="translate(10.221 8.939)"><path class="b" d="M25.14,20.459A5.073,5.073,0,0,1,27.555,16.2a5.193,5.193,0,0,0-4.091-2.212c-1.721-.181-3.39,1.03-4.267,1.03-.894,0-2.245-1.012-3.7-.982a5.449,5.449,0,0,0-4.585,2.8c-1.982,3.432-.5,8.477,1.4,11.251.95,1.359,2.061,2.876,3.514,2.822C17.244,30.85,17.775,30,19.491,30c1.7,0,2.2.907,3.681.872,1.526-.025,2.487-1.365,3.4-2.736a11.237,11.237,0,0,0,1.556-3.17A4.9,4.9,0,0,1,25.14,20.459Z" transform="translate(-9.972 -8.589)"/><path class="b" d="M22.119,12.3A5,5,0,0,0,23.261,8.72a5.082,5.082,0,0,0-3.288,1.7A4.753,4.753,0,0,0,18.8,13.867,4.2,4.2,0,0,0,22.119,12.3Z" transform="translate(-9.751 -8.72)"/><g transform="translate(25.069 9.38)"><path class="b" d="M42.5,27.367H37.648l-1.165,3.441H34.427l4.6-12.729h2.135l4.6,12.729h-2.09Zm-4.35-1.588H42L40.1,20.2h-.053Z" transform="translate(-34.427 -17.866)"/><path class="b" d="M55.373,26.086c0,2.884-1.544,4.737-3.873,4.737A3.146,3.146,0,0,1,48.58,29.2h-.044v4.6h-1.9V21.445h1.844v1.544h.035a3.292,3.292,0,0,1,2.955-1.641C53.821,21.348,55.373,23.21,55.373,26.086Zm-1.958,0c0-1.879-.971-3.114-2.453-3.114-1.456,0-2.435,1.261-2.435,3.114,0,1.87.979,3.122,2.435,3.122C52.444,29.208,53.415,27.982,53.415,26.086Z" transform="translate(-34.121 -17.784)"/><path class="b" d="M65.338,26.086c0,2.884-1.544,4.737-3.873,4.737a3.146,3.146,0,0,1-2.92-1.624H58.5v4.6H56.6V21.445H58.44v1.544h.035a3.292,3.292,0,0,1,2.955-1.641C63.786,21.348,65.338,23.21,65.338,26.086Zm-1.958,0c0-1.879-.971-3.114-2.453-3.114-1.456,0-2.435,1.261-2.435,3.114,0,1.87.979,3.122,2.435,3.122,1.482,0,2.453-1.226,2.453-3.122Z" transform="translate(-33.872 -17.784)"/><path class="b" d="M71.758,27.266c.141,1.262,1.367,2.091,3.043,2.091,1.606,0,2.761-.829,2.761-1.967,0-.988-.7-1.58-2.346-1.985l-1.65-.4c-2.337-.565-3.423-1.658-3.423-3.432,0-2.2,1.914-3.7,4.632-3.7,2.69,0,4.534,1.509,4.6,3.7H77.448c-.115-1.27-1.165-2.037-2.7-2.037s-2.585.776-2.585,1.9c0,.9.671,1.429,2.311,1.835l1.4.344c2.612.618,3.7,1.667,3.7,3.529,0,2.381-1.9,3.873-4.914,3.873-2.823,0-4.729-1.457-4.852-3.759Z" transform="translate(-33.541 -17.871)"/><path class="b" d="M83.426,19.3v2.2h1.765V23H83.426v5.116c0,.795.353,1.165,1.129,1.165a5.951,5.951,0,0,0,.627-.044v1.5a5.231,5.231,0,0,1-1.058.088c-1.879,0-2.612-.706-2.612-2.506V23H80.163V21.5h1.349V19.3Z" transform="translate(-33.281 -17.835)"/><path class="b" d="M86.065,26.086c0-2.92,1.72-4.755,4.4-4.755s4.4,1.835,4.4,4.755-1.7,4.755-4.4,4.755S86.065,29.014,86.065,26.086Zm6.863,0c0-2-.918-3.185-2.462-3.185s-2.461,1.191-2.461,3.185c0,2.011.917,3.184,2.461,3.184s2.461-1.173,2.461-3.184Z" transform="translate(-33.133 -17.784)"/><path class="b" d="M96.186,21.445H98v1.58h.044a2.214,2.214,0,0,1,2.232-1.677,2.938,2.938,0,0,1,.653.071V23.2a2.663,2.663,0,0,0-.856-.115,1.92,1.92,0,0,0-1.985,2.135v5.5h-1.9Z" transform="translate(-32.879 -17.784)"/><path class="b" d="M109.589,28c-.256,1.685-1.9,2.841-4,2.841-2.7,0-4.376-1.809-4.376-4.711s1.685-4.8,4.3-4.8c2.568,0,4.182,1.764,4.182,4.578v.653H103.14v.115a2.417,2.417,0,0,0,2.5,2.629A2.1,2.1,0,0,0,107.78,28Zm-6.44-2.77h4.64a2.232,2.232,0,0,0-2.276-2.355,2.349,2.349,0,0,0-2.363,2.355Z" transform="translate(-32.753 -17.784)"/></g></g><g transform="translate(36.565 8.649)"><path class="b" d="M37.88,8.731a2.706,2.706,0,0,1,2.878,3.039c0,1.954-1.056,3.077-2.878,3.077H35.671V8.731Zm-1.259,5.251h1.153a1.923,1.923,0,0,0,2.017-2.2A1.928,1.928,0,0,0,37.774,9.6H36.621Z" transform="translate(-35.671 -8.43)"/><path class="b" d="M41.681,12.5a2.187,2.187,0,1,1,4.354,0,2.187,2.187,0,1,1-4.354,0Zm3.417,0c0-1-.449-1.586-1.238-1.586s-1.237.585-1.237,1.586.445,1.589,1.237,1.589S45.1,13.507,45.1,12.5Z" transform="translate(-35.521 -8.395)"/><path class="b" d="M51.7,14.811h-.945l-.954-3.4h-.072l-.95,3.4h-.936l-1.272-4.616h.924l.827,3.522h.068l.949-3.522h.874l.949,3.522h.072l.823-3.522h.911Z" transform="translate(-35.398 -8.393)"/><path class="b" d="M53.854,10.2h.877v.733H54.8a1.382,1.382,0,0,1,1.377-.822,1.5,1.5,0,0,1,1.6,1.717v2.988h-.911V12.054c0-.742-.322-1.111-1-1.111a1.059,1.059,0,0,0-1.1,1.17v2.7h-.911Z" transform="translate(-35.215 -8.395)"/><path class="b" d="M59.094,8.437H60v6.418h-.911Z" transform="translate(-35.084 -8.437)"/><path class="b" d="M61.218,12.5a2.187,2.187,0,1,1,4.354,0,2.187,2.187,0,1,1-4.354,0Zm3.417,0c0-1-.449-1.586-1.238-1.586s-1.237.585-1.237,1.586.445,1.589,1.237,1.589,1.238-.585,1.238-1.589Z" transform="translate(-35.031 -8.395)"/><path class="b" d="M66.4,13.507c0-.831.619-1.31,1.717-1.378l1.25-.072v-.4c0-.488-.322-.763-.945-.763-.509,0-.861.187-.962.513h-.882c.093-.793.839-1.3,1.886-1.3,1.157,0,1.81.576,1.81,1.551v3.154H69.4v-.649h-.072a1.553,1.553,0,0,1-1.386.725A1.394,1.394,0,0,1,66.4,13.507Zm2.967-.394v-.386l-1.127.072c-.636.043-.924.259-.924.666s.36.657.856.657a1.088,1.088,0,0,0,1.2-1.009Z" transform="translate(-34.901 -8.395)"/><path class="b" d="M71.348,12.545c0-1.459.75-2.382,1.916-2.382a1.521,1.521,0,0,1,1.415.81h.068V8.437h.911v6.418h-.873v-.729h-.072a1.6,1.6,0,0,1-1.45.805C72.09,14.931,71.348,14.007,71.348,12.545Zm.941,0c0,.979.461,1.568,1.233,1.568s1.242-.6,1.242-1.564-.479-1.568-1.242-1.568-1.233.593-1.233,1.564Z" transform="translate(-34.777 -8.437)"/><path class="b" d="M79.23,12.5a2.187,2.187,0,1,1,4.354,0,2.187,2.187,0,1,1-4.354,0Zm3.417,0c0-1-.449-1.586-1.238-1.586s-1.237.585-1.237,1.586.445,1.589,1.237,1.589S82.647,13.507,82.647,12.5Z" transform="translate(-34.58 -8.395)"/><path class="b" d="M84.669,10.2h.877v.733h.068a1.382,1.382,0,0,1,1.377-.822,1.5,1.5,0,0,1,1.6,1.717v2.988h-.911V12.054c0-.742-.322-1.111-1-1.111a1.059,1.059,0,0,0-1.1,1.17v2.7h-.911Z" transform="translate(-34.443 -8.395)"/><path class="b" d="M93.555,9.074v1.17h1v.767h-1v2.373c0,.484.2.7.653.7a3.041,3.041,0,0,0,.347-.021v.759a2.989,2.989,0,0,1-.5.047c-1.013,0-1.416-.356-1.416-1.246V11.011h-.733v-.767h.733V9.074Z" transform="translate(-34.261 -8.421)"/><path class="b" d="M95.7,8.437h.9v2.544h.072a1.42,1.42,0,0,1,1.407-.827,1.521,1.521,0,0,1,1.59,1.721v2.98h-.912V12.1c0-.737-.343-1.111-.987-1.111a1.078,1.078,0,0,0-1.162,1.17v2.7H95.7Z" transform="translate(-34.166 -8.437)"/><path class="b" d="M104.863,13.566a1.874,1.874,0,0,1-2,1.335,2.1,2.1,0,0,1-2.132-2.382,2.129,2.129,0,0,1,2.128-2.411c1.284,0,2.059.877,2.059,2.327v.318h-3.259V12.8a1.22,1.22,0,0,0,1.229,1.322,1.106,1.106,0,0,0,1.1-.56Zm-3.2-1.488h2.331a1.114,1.114,0,0,0-1.136-1.2,1.18,1.18,0,0,0-1.2,1.2Z" transform="translate(-34.041 -8.395)"/></g></svg>