<svg xmlns="http://www.w3.org/2000/svg" xmlns:xlink="http://www.w3.org/1999/xlink" width="138.048" height="42" viewBox="0 0 138.048 42"><defs><style>.a{fill:#a6a6a6;}.b,.c,.j{fill:#fff;}.b{stroke:#fff;stroke-miterlimit:10;stroke-width:0.2px;}.d{fill:url(#a);}.e{fill:url(#b);}.f{fill:url(#c);}.g{fill:url(#d);}.h{opacity:0.2;}.h,.i,.j{isolation:isolate;}.i{opacity:0.12;}.j{opacity:0.25;}</style><linearGradient id="a" x1="0.915" y1="6.614" x2="-0.383" y2="5.945" gradientUnits="objectBoundingBox"><stop offset="0" stop-color="#00a0ff"/><stop offset="0.007" stop-color="#00a1ff"/><stop offset="0.26" stop-color="#00beff"/><stop offset="0.512" stop-color="#00d2ff"/><stop offset="0.76" stop-color="#00dfff"/><stop offset="1" stop-color="#00e3ff"/></linearGradient><linearGradient id="b" x1="1.076" y1="17.098" x2="-1.305" y2="17.098" gradientUnits="objectBoundingBox"><stop offset="0" stop-color="#ffe000"/><stop offset="0.409" stop-color="#ffbd00"/><stop offset="0.775" stop-color="orange"/><stop offset="1" stop-color="#ff9c00"/></linearGradient><linearGradient id="c" x1="0.862" y1="10.863" x2="-0.501" y2="9.093" gradientUnits="objectBoundingBox"><stop offset="0" stop-color="#ff3a44"/><stop offset="1" stop-color="#c31162"/></linearGradient><linearGradient id="d" x1="-0.188" y1="13.583" x2="0.421" y2="12.793" gradientUnits="objectBoundingBox"><stop offset="0" stop-color="#32a071"/><stop offset="0.068" stop-color="#2da771"/><stop offset="0.476" stop-color="#15cf74"/><stop offset="0.801" stop-color="#06e775"/><stop offset="1" stop-color="#00f076"/></linearGradient></defs><rect width="138" height="42" rx="5"/><g transform="translate(0.434 0.499)"><path class="a" d="M142.517,10.815A4.286,4.286,0,0,1,146.8,15.1V45.678a4.286,4.286,0,0,1-4.281,4.281H15.1a4.286,4.286,0,0,1-4.281-4.281V15.1A4.286,4.286,0,0,1,15.1,10.815h127.42m0-.815H15.1A5.112,5.112,0,0,0,10,15.1V45.678a5.112,5.112,0,0,0,5.1,5.1h127.42a5.112,5.112,0,0,0,5.1-5.1V15.1a5.112,5.112,0,0,0-5.1-5.1Z" transform="translate(-10 -10)"/></g><g transform="translate(42.587 7.498)"><path class="b" d="M57.535,20.308a2.761,2.761,0,0,1-.759,2.042,2.964,2.964,0,0,1-2.247.905,3.213,3.213,0,0,1-2.251-5.471,3.077,3.077,0,0,1,2.251-.918,3.166,3.166,0,0,1,1.256.256,2.516,2.516,0,0,1,.956.684l-.537.537a2.069,2.069,0,0,0-1.675-.725,2.365,2.365,0,0,0-2.375,2.442,2.406,2.406,0,0,0,4.084,1.76,1.929,1.929,0,0,0,.513-1.24H54.529v-.734h2.964A2.607,2.607,0,0,1,57.535,20.308Z" transform="translate(-51.352 -16.866)"/><path class="b" d="M62.1,17.751H59.31v1.94h2.512v.734H59.31v1.94H62.1v.751H58.525V17H62.1Z" transform="translate(-51.213 -16.863)"/><path class="b" d="M65.326,23.116h-.787V17.751H62.832V17h4.2v.751H65.326Z" transform="translate(-51.13 -16.863)"/><path class="b" d="M69.938,23.116V17h.785v6.116Z" transform="translate(-50.992 -16.863)"/><path class="b" d="M74.175,23.116h-.786V17.751H71.681V17h4.2v.751H74.175Z" transform="translate(-50.958 -16.863)"/><path class="b" d="M83.711,22.329a3.176,3.176,0,0,1-4.484,0,3.3,3.3,0,0,1,0-4.536,3.166,3.166,0,0,1,4.48,0,3.294,3.294,0,0,1,0,4.532Zm-3.9-.513a2.353,2.353,0,0,0,3.323,0,2.606,2.606,0,0,0,0-3.511,2.353,2.353,0,0,0-3.323,0,2.609,2.609,0,0,0,0,3.511Z" transform="translate(-50.83 -16.866)"/><path class="b" d="M85.575,23.116V17h.957L89.5,21.757h.034L89.5,20.579V17h.786v6.116h-.82l-3.11-4.989h-.034l.034,1.179v3.809Z" transform="translate(-50.689 -16.863)"/></g><path class="c" d="M78.661,31.843a4.335,4.335,0,1,0,4.352,4.335A4.273,4.273,0,0,0,78.661,31.843Zm0,6.962a2.634,2.634,0,1,1,2.446-2.627A2.508,2.508,0,0,1,78.661,38.805Zm-9.493-6.962a4.335,4.335,0,1,0,4.352,4.335A4.273,4.273,0,0,0,69.167,31.843Zm0,6.962a2.634,2.634,0,1,1,2.446-2.627A2.508,2.508,0,0,1,69.167,38.805ZM57.874,33.173v1.839h4.4a3.838,3.838,0,0,1-1,2.315,4.506,4.506,0,0,1-3.4,1.347,4.894,4.894,0,0,1,0-9.787A4.689,4.689,0,0,1,61.191,30.2l1.3-1.3a6.417,6.417,0,0,0-4.615-1.856,6.734,6.734,0,1,0,0,13.467,6.153,6.153,0,0,0,4.7-1.889,6.077,6.077,0,0,0,1.593-4.3,5.942,5.942,0,0,0-.1-1.149ZM104.059,34.6a4.029,4.029,0,0,0-3.711-2.758,4.119,4.119,0,0,0-4.089,4.335,4.243,4.243,0,0,0,4.3,4.335,4.312,4.312,0,0,0,3.613-1.922l-1.478-.986a2.477,2.477,0,0,1-2.135,1.2,2.207,2.207,0,0,1-2.1-1.313l5.8-2.4Zm-5.912,1.445a2.379,2.379,0,0,1,2.266-2.529,1.677,1.677,0,0,1,1.61.919Zm-4.713,4.2h1.9V27.507h-1.9Zm-3.121-7.439h-.065a3,3,0,0,0-2.282-.968,4.339,4.339,0,0,0,0,8.671,2.954,2.954,0,0,0,2.282-.986h.065v.625c0,1.659-.886,2.545-2.315,2.545a2.4,2.4,0,0,1-2.184-1.544l-1.659.69A4.131,4.131,0,0,0,88,44.406c2.233,0,4.122-1.314,4.122-4.516V32.105H90.313ZM88.13,38.805a2.637,2.637,0,0,1,0-5.255,2.443,2.443,0,0,1,2.315,2.644A2.422,2.422,0,0,1,88.13,38.805Zm24.853-11.3h-4.558V40.251h1.9V35.423h2.656a3.964,3.964,0,1,0,0-7.915Zm.049,6.142h-2.705V29.281h2.705a2.184,2.184,0,1,1,0,4.368Zm11.755-1.83a3.573,3.573,0,0,0-3.394,1.95l1.689.705a1.8,1.8,0,0,1,1.738-.935,1.831,1.831,0,0,1,2,1.64v.13a4.207,4.207,0,0,0-1.984-.491c-1.82,0-3.673,1-3.673,2.868a2.945,2.945,0,0,0,3.164,2.8,2.684,2.684,0,0,0,2.427-1.247h.065v.984h1.836V35.344C128.655,33.082,126.967,31.82,124.787,31.82Zm-.229,6.984c-.624,0-1.492-.311-1.492-1.082,0-.984,1.082-1.361,2.016-1.361a3.393,3.393,0,0,1,1.738.426A2.306,2.306,0,0,1,124.557,38.8ZM135.344,32.1l-2.18,5.525H133.1L130.836,32.1h-2.049l3.393,7.722-1.935,4.3h1.984L137.46,32.1Zm-17.132,8.153h1.9V27.508h-1.9Z" transform="translate(-8.771 -9.171)"/><g transform="translate(10.6 7.778)"><path class="d" d="M20.444,17.539a2.046,2.046,0,0,0-.471,1.432V41.516a2.044,2.044,0,0,0,.471,1.432l.075.073L33.148,30.393v-.3L20.519,17.465Z" transform="translate(-19.973 -17.134)"/><path class="e" d="M37.108,34.445,32.9,30.233v-.3l4.211-4.211.095.055,4.988,2.834c1.424.809,1.424,2.134,0,2.943L37.2,34.39Z" transform="translate(-19.723 -16.974)"/><path class="f" d="M37.445,34.307,33.139,30l-12.7,12.7a1.659,1.659,0,0,0,2.119.062l14.891-8.461" transform="translate(-19.964 -16.891)"/><path class="g" d="M37.445,25.944,22.554,17.484a1.659,1.659,0,0,0-2.119.062l12.7,12.7Z" transform="translate(-19.964 -17.14)"/><g transform="translate(0 17.321)"><path class="h" d="M37.35,34.132l-14.8,8.407a1.7,1.7,0,0,1-2.043.011h0l-.076.075h0l.075.074h0a1.7,1.7,0,0,0,2.043-.011l14.891-8.461Z" transform="translate(-19.964 -34.132)"/><path class="i" d="M20.444,42.345a2.044,2.044,0,0,1-.471-1.432v.15a2.041,2.041,0,0,0,.471,1.431l.076-.075Z" transform="translate(-19.973 -34.001)"/></g><path class="i" d="M42.112,31.324l-5.083,2.888.095.095,4.988-2.834A1.789,1.789,0,0,0,43.18,30h0A1.9,1.9,0,0,1,42.112,31.324Z" transform="translate(-19.643 -16.891)"/><path class="j" d="M22.563,17.632,42.442,28.927A1.9,1.9,0,0,1,43.51,30.25h0a1.787,1.787,0,0,0-1.068-1.472L22.563,17.484c-1.425-.809-2.59-.137-2.59,1.494v.15C19.973,17.5,21.138,16.823,22.563,17.632Z" transform="translate(-19.973 -17.14)"/></g></svg>